HIERARCHY
ROOT root
{
	OFFSET	0.00	0.00	0.00
	CHANNELS 6 Xposition Yposition Zposition Zrotation Xrotation Yrotation
	JOINT back
	{
		OFFSET	 0.494691	-0.003158	-0.003178
		CHANNELS 3 Zrotation Xrotation Yrotation
		JOINT chest
		{
			OFFSET	 0.264817	 0.004177	 0.000000
			CHANNELS 3 Zrotation Xrotation Yrotation
			JOINT l_clavicle
			{
				OFFSET	 0.114550	 0.000716	-0.065320
				CHANNELS 3 Zrotation Xrotation Yrotation
				JOINT l_end_clavicle
				{
					OFFSET	 0.162817	-0.003802	 0.000068
					CHANNELS 3 Zrotation Xrotation Yrotation
					JOINT l_shoulder
					{
						OFFSET	 0.005413	-0.036488	 0.055972
						CHANNELS 3 Zrotation Xrotation Yrotation
						JOINT l_forearm
						{
							OFFSET	 0.293450	 0.004803	-0.037834
							CHANNELS 3 Zrotation Xrotation Yrotation
							JOINT l_end_wrist
							{
								OFFSET	 0.317021	-0.006522	 0.006333
								CHANNELS 3 Zrotation Xrotation Yrotation
								JOINT l_index1
								{
									OFFSET	 0.152748	-0.021000	-0.014320
									CHANNELS 3 Zrotation Xrotation Yrotation
									JOINT l_index2
									{
										OFFSET	 0.039283	 0.000000	 0.000000
										CHANNELS 3 Zrotation Xrotation Yrotation
										JOINT l_index3
										{
											OFFSET	 0.038151	 0.000000	 0.000000
											CHANNELS 3 Zrotation Xrotation Yrotation
											End Site
											{
												OFFSET	 0.038151	 0.000000	 0.000000
											}
										}
									}
								}
								JOINT l_middle1
								{
									OFFSET	 0.151723	 0.016194	-0.014667
									CHANNELS 3 Zrotation Xrotation Yrotation
									JOINT l_middle_2
									{
										OFFSET	 0.038269	 0.000000	 0.000000
										CHANNELS 3 Zrotation Xrotation Yrotation
										JOINT l_middle_3
										{
											OFFSET	 0.039743	 0.000000	 0.000000
											CHANNELS 3 Zrotation Xrotation Yrotation
											End Site
											{
												OFFSET	 0.039743	 0.000000	 0.000000
											}
										}
									}
								}
								JOINT l_pinky1
								{
									OFFSET	 0.117088	 0.077397	-0.013819
									CHANNELS 3 Zrotation Xrotation Yrotation
									JOINT l_pinky2
									{
										OFFSET	 0.028938	 0.000000	 0.000000
										CHANNELS 3 Zrotation Xrotation Yrotation
										JOINT l_pinky3
										{
											OFFSET	 0.027080	 0.000000	 0.000000
											CHANNELS 3 Zrotation Xrotation Yrotation
											End Site
											{
												OFFSET	 0.027080	 0.000000	 0.000000
											}
										}
									}
								}
								JOINT l_ring1
								{
									OFFSET	 0.137788	 0.047650	-0.014135
									CHANNELS 3 Zrotation Xrotation Yrotation
									JOINT l_ring2
									{
										OFFSET	 0.030749	 0.000000	 0.000000
										CHANNELS 3 Zrotation Xrotation Yrotation
										JOINT l_ring3
										{
											OFFSET	 0.032711	 0.000000	 0.000000
											CHANNELS 3 Zrotation Xrotation Yrotation
											End Site
											{
												OFFSET	 0.032711	 0.000000	 0.000000
											}
										}
									}
								}
								JOINT l_thumb1
								{
									OFFSET	 0.054053	-0.036728	-0.011261
									CHANNELS 3 Zrotation Xrotation Yrotation
									JOINT l_thumb_2
									{
										OFFSET	 0.051141	-0.005593	-0.001180
										CHANNELS 3 Zrotation Xrotation Yrotation
										JOINT l_thumb_3
										{
											OFFSET	 0.046422	-0.001905	 0.000191
											CHANNELS 3 Zrotation Xrotation Yrotation
											End Site
											{
												OFFSET	 0.046422	-0.001905	 0.000191
											}
										}
									}
								}
							}
						}
					}
				}
			}
			JOINT neck
			{
				OFFSET	 0.143918	 0.000470	 0.000000
				CHANNELS 3 Zrotation Xrotation Yrotation
				JOINT head
				{
					OFFSET	-0.005116	-0.004274	 0.061180
					CHANNELS 3 Zrotation Xrotation Yrotation
					End Site
					{
						OFFSET	-0.005116	-0.004274	 0.061180
					}
				}
			}
			JOINT r_clavicle
			{
				OFFSET	 0.114552	 0.000716	 0.065320
				CHANNELS 3 Zrotation Xrotation Yrotation
				JOINT r_end_clavicle
				{
					OFFSET	-0.162817	 0.003801	-0.000067
					CHANNELS 3 Zrotation Xrotation Yrotation
					JOINT r_shoulder
					{
						OFFSET	 0.002078	 0.026325	-0.022735
						CHANNELS 3 Zrotation Xrotation Yrotation
						JOINT r_forearm
						{
							OFFSET	-0.279905	-0.027029	 0.065297
							CHANNELS 3 Zrotation Xrotation Yrotation
							JOINT r_end_wrist
							{
								OFFSET	-0.317022	 0.006522	-0.006331
								CHANNELS 3 Zrotation Xrotation Yrotation
								JOINT r_index1
								{
									OFFSET	-0.152748	 0.021000	 0.014322
									CHANNELS 3 Zrotation Xrotation Yrotation
									JOINT r_index2
									{
										OFFSET	-0.039280	 0.000000	-0.000001
										CHANNELS 3 Zrotation Xrotation Yrotation
										JOINT r_index3
										{
											OFFSET	-0.038152	 0.000000	-0.000001
											CHANNELS 3 Zrotation Xrotation Yrotation
											End Site
											{
												OFFSET	-0.038152	 0.000000	-0.000001
											}
										}
									}
								}
								JOINT r_middle1
								{
									OFFSET	-0.151722	-0.016194	 0.014664
									CHANNELS 3 Zrotation Xrotation Yrotation
									JOINT r_middle_2
									{
										OFFSET	-0.038270	 0.000000	 0.000003
										CHANNELS 3 Zrotation Xrotation Yrotation
										JOINT r_middle_3
										{
											OFFSET	-0.039744	 0.000000	 0.000000
											CHANNELS 3 Zrotation Xrotation Yrotation
											End Site
											{
												OFFSET	-0.039744	 0.000000	 0.000000
											}
										}
									}
								}
								JOINT r_pinky1
								{
									OFFSET	-0.117090	-0.077397	 0.013818
									CHANNELS 3 Zrotation Xrotation Yrotation
									JOINT r_pinky2
									{
										OFFSET	-0.028938	 0.000000	 0.000000
										CHANNELS 3 Zrotation Xrotation Yrotation
										JOINT r_pinky3
										{
											OFFSET	-0.027078	-0.000001	 0.000000
											CHANNELS 3 Zrotation Xrotation Yrotation
											End Site
											{
												OFFSET	-0.027078	-0.000001	 0.000000
											}
										}
									}
								}
								JOINT r_ring1
								{
									OFFSET	-0.137790	-0.047650	 0.014136
									CHANNELS 3 Zrotation Xrotation Yrotation
									JOINT r_ring2
									{
										OFFSET	-0.030748	 0.000000	-0.000001
										CHANNELS 3 Zrotation Xrotation Yrotation
										JOINT r_ring3
										{
											OFFSET	-0.032707	-0.000001	 0.000003
											CHANNELS 3 Zrotation Xrotation Yrotation
											End Site
											{
												OFFSET	-0.032707	-0.000001	 0.000003
											}
										}
									}
								}
								JOINT r_thumb1
								{
									OFFSET	-0.054054	 0.036728	 0.011262
									CHANNELS 3 Zrotation Xrotation Yrotation
									JOINT r_thumb_2
									{
										OFFSET	-0.051140	 0.005594	 0.001177
										CHANNELS 3 Zrotation Xrotation Yrotation
										JOINT r_thumb_3
										{
											OFFSET	-0.046419	 0.001906	-0.000190
											CHANNELS 3 Zrotation Xrotation Yrotation
											End Site
											{
												OFFSET	-0.046419	 0.001906	-0.000190
											}
										}
									}
								}
							}
						}
					}
				}
			}
		}
	}
	JOINT Pelvis
	{
		OFFSET	 0.153808	-0.002934	-0.002617
		CHANNELS 3 Zrotation Xrotation Yrotation
		JOINT l_thigh
		{
			OFFSET	 0.145222	-0.127336	 0.003594
			CHANNELS 3 Zrotation Xrotation Yrotation
			End Site
			{
				OFFSET	 0.145222	-0.127336	 0.003594
			}
		}
		JOINT r_thigh
		{
			OFFSET	 0.143036	 0.137869	 0.004460
			CHANNELS 3 Zrotation Xrotation Yrotation
			End Site
			{
				OFFSET	 0.143036	 0.137869	 0.004460
			}
		}
	}
}
MOTION
Frames:    5
Frame Time: 0.01666667
-0.001963	 0.002454	-0.116118	 179.305400	 0.221747	-89.965800	-0.000021	 0.000000	 0.000000	-0.000021	 0.000000	 0.000000	-3.525149	 11.225090	 114.920700	-0.813313	 0.122417	-8.559153	-39.721840	-22.971270	 34.504040	-46.877240	 33.730030	 8.058828	-1.508344	 27.119350	 0.905986	-11.666870	-4.636808	 35.944750	 2.477603	-1.136251	 35.323120	 2.739605	 0.675539	-52.364350	-0.352786	 1.276010	 35.556880	-0.202301	 3.178486	 36.024460	 2.411832	 5.494030	-52.520410	 39.007590	 20.375220	 27.137650	-6.436097	 19.357820	 32.910680	-5.387433	 19.254410	-57.899170	 18.466570	 10.398590	 33.996140	-3.686892	 9.480865	 35.137450	-0.646625	 10.763470	-53.750010	-51.281710	-9.954659	 11.445530	 23.982090	-0.549087	 0.208112	 14.789960	-0.368235	 3.437935	-0.000006	 0.000001	 90.000000	-90.000000	 0.000000	-86.406780	 177.642400	 8.601227	 111.084700	-0.813313	 0.122417	-8.559153	 12.236280	 10.972310	 52.931600	-1.045101	 10.743230	-0.604093	-2.262662	 22.375880	-11.302420	-11.666870	-4.636809	 35.944760	 2.477604	-1.136251	 35.323130	 2.739605	 0.675539	-52.364380	-0.352786	 1.276010	 35.556880	-0.202300	 3.178487	 36.024460	 2.411833	 5.494030	-52.520430	 39.007590	 20.375220	 27.137660	-6.436093	 19.357820	 32.910680	-5.387434	 19.254410	-57.899150	 18.466580	 10.398590	 33.996150	-3.686890	 9.480865	 35.137440	-0.646626	 10.763470	-53.750010	-51.281720	-9.954665	 11.445540	 23.982080	-0.549088	 0.208112	 14.789960	-0.368242	 3.437935	 0.000000	 90.000000	 0.000000	 177.641500	 1.693646	 173.691800	-177.179200	-1.281514	-6.296279
-0.006672	-0.010978	-0.093564	 178.678200	-0.373331	-89.801810	-3.663145	 0.265490	-0.021420	-3.245995	 0.671804	-0.036758	-2.384714	 7.757372	 113.868700	-0.813313	 0.122417	-8.559153	-42.968590	-23.606170	 31.200070	-38.716780	 33.201260	 7.540308	-5.070889	 25.417750	-10.063080	-10.545370	-3.898522	 30.913150	 2.482139	-1.133380	 29.346970	 2.890972	 0.443336	-57.715690	 0.397506	 1.768158	 30.986010	-0.215304	 3.169923	 30.789550	 2.535204	 5.282969	-55.970360	 38.658050	 20.215600	 24.784430	-6.505906	 19.318600	 28.626320	-5.435946	 19.248740	-60.289620	 18.441450	 10.382680	 31.545840	-3.724604	 9.457033	 30.157980	-0.592558	 10.615160	-57.385330	-52.468610	-10.288230	 10.535040	 21.126350	-0.546989	 0.183256	 8.147415	-0.342499	 3.383340	 0.462168	-0.163820	 90.031690	-89.970650	-0.158842	-91.372750	 178.139800	 7.030590	 110.093600	-0.813313	 0.122417	-8.559153	 10.546230	 12.911610	 53.229280	-21.392870	 7.754637	-3.116590	 4.430062	 15.716900	-16.875480	-11.454520	-4.474966	 38.850570	 2.474895	-1.138273	 39.090470	 2.693729	 0.737494	-50.876610	-0.143985	 1.427893	 36.511230	-0.206576	 3.175473	 34.265600	 2.510136	 5.328309	-55.239310	 39.326610	 20.521790	 25.100460	-6.473355	 19.336190	 30.603480	-5.484605	 19.245210	-62.672060	 18.723550	 10.564450	 32.564520	-3.699256	 9.472609	 33.482640	-0.608253	 10.661120	-56.268540	-48.264390	-8.864450	 14.803010	 22.357210	-0.548072	 0.193957	 15.216930	-0.369674	 3.441541	 0.000000	 90.000000	 0.000000	 175.685200	 3.589916	 172.957600	-175.080700	-2.513379	-7.081826
-0.008150	-0.015452	-0.086027	 178.470700	-0.573791	-89.742600	-4.883406	 0.354588	-0.027782	-4.327168	 0.896686	-0.048367	-2.020909	 6.597374	 113.534700	-0.813313	 0.122417	-8.559153	-44.052250	-23.773130	 30.086420	-35.960830	 33.032110	 7.279274	-6.203195	 24.988490	-13.788760	-10.158830	-3.675221	 29.234860	 2.483714	-1.132530	 27.355950	 2.936504	 0.362962	-59.498370	 0.655495	 1.918353	 29.461640	-0.219803	 3.167338	 29.045510	 2.573436	 5.211059	-57.119350	 38.540240	 20.165470	 24.000710	-6.529826	 19.306640	 27.199140	-5.452156	 19.247280	-61.085990	 18.432920	 10.377610	 30.729530	-3.737617	 9.449823	 28.499080	-0.576690	 10.565040	-58.596020	-52.865490	-10.395220	 10.230000	 20.174930	-0.546015	 0.175001	 5.934411	-0.332543	 3.365861	 0.616343	-0.217123	 90.042280	-89.956860	-0.110944	-93.042000	 178.299500	 6.503845	 109.767300	-0.813313	 0.122417	-8.559153	 9.978781	 13.558740	 53.352760	-28.336740	 6.864917	-3.487898	 6.538616	 13.382200	-18.374900	-11.385520	-4.418590	 39.818580	 2.474021	-1.138987	 40.346270	 2.678085	 0.757875	-50.380760	-0.075195	 1.479110	 36.829460	-0.208020	 3.174500	 33.680270	 2.541068	 5.272173	-56.143550	 39.434030	 20.568190	 24.421540	-6.485962	 19.329300	 29.835400	-5.517030	 19.243840	-64.257760	 18.810030	 10.618240	 32.087640	-3.703424	 9.469941	 32.932000	-0.596498	 10.626690	-57.106870	-47.276810	-8.463243	 15.905010	 21.815870	-0.547637	 0.189249	 15.359170	-0.370140	 3.442743	 0.000000	 90.000000	 0.000000	 175.041900	 4.227591	 172.738300	-174.385500	-2.929886	-7.319487
-0.009532	-0.019755	-0.078739	 178.271200	-0.767694	-89.683690	-6.060416	 0.440880	-0.033332	-5.370016	 1.114256	-0.059088	-1.677180	 5.476626	 113.219800	-0.813313	 0.122417	-8.559153	-45.097010	-23.912830	 29.007440	-33.285760	 32.868260	 6.985154	-7.258996	 24.639130	-17.417270	-9.780608	-3.470990	 27.615040	 2.485260	-1.131763	 25.435340	 2.978036	 0.284124	-61.217910	 0.907738	 2.056473	 27.990530	-0.224216	 3.164975	 27.363130	 2.608930	 5.140983	-58.227510	 38.425980	 20.118550	 23.244850	-6.553192	 19.295650	 25.822530	-5.467813	 19.246070	-61.854200	 18.424610	 10.372820	 29.942130	-3.750363	 9.443222	 26.898860	-0.562410	 10.516390	-59.763710	-53.248990	-10.496440	 9.934966	 19.257160	-0.544947	 0.167056	 3.799657	-0.322309	 3.349373	 0.765235	-0.267593	 90.052510	-89.942410	-0.080093	-94.658830	 178.450700	 5.993903	 109.454300	-0.813313	 0.122417	-8.559153	 9.428903	 14.183790	 53.484020	-35.084890	 5.998010	-3.629247	 8.532929	 11.090200	-19.659960	-11.319760	-4.363024	 40.752370	 2.473194	-1.139693	 41.558170	 2.662823	 0.777411	-49.902340	-0.009290	 1.528745	 37.136660	-0.209420	 3.173576	 33.116130	 2.570024	 5.217631	-57.014710	 39.538120	 20.611770	 23.766660	-6.498209	 19.322820	 29.094910	-5.548265	 19.243330	-65.784140	 18.893800	 10.669400	 31.627750	-3.707466	 9.467407	 32.401310	-0.585655	 10.593340	-57.915020	-46.333180	-8.058800	 16.959530	 21.293670	-0.547182	 0.184711	 15.496390	-0.370587	 3.443907	 0.000000	 90.000000	 0.000000	 174.425700	 4.845337	 172.534900	-173.716600	-3.334137	-7.537018
-0.011102	-0.024781	-0.070171	 178.038100	-0.996524	-89.612500	-7.441305	 0.542616	-0.038990	-6.593438	 1.370409	-0.070959	-1.282564	 4.159667	 112.859400	-0.813313	 0.122417	-8.559153	-46.321100	-24.049930	 27.736620	-30.127160	 32.671890	 6.586893	-8.443826	 24.308450	-21.718210	-9.330775	-3.245676	 25.713460	 2.487105	-1.130930	 23.181840	 3.023722	 0.190085	-63.235400	 1.207593	 2.209891	 26.263640	-0.229479	 3.162369	 25.389180	 2.648827	 5.057913	-59.527490	 38.291180	 20.065330	 22.358140	-6.580950	 19.283420	 24.207410	-5.486202	 19.244910	-62.755490	 18.414750	 10.367340	 29.018310	-3.765551	 9.435928	 25.021350	-0.546947	 10.458960	-61.133520	-53.699790	-10.612730	 9.587850	 18.180340	-0.543536	 0.157755	 1.294954	-0.309526	 3.330531	 0.940168	-0.325509	 90.064580	-89.924210	-0.057953	-96.560030	 178.624800	 5.393212	 109.089400	-0.813313	 0.122417	-8.559153	 8.780268	 14.918350	 53.653750	-43.043010	 4.924391	-3.537014	 10.842310	 8.361536	-20.970700	-11.243650	-4.296365	 41.847990	 2.472242	-1.140544	 42.980820	 2.644703	 0.800176	-49.340800	 0.067459	 1.587255	 37.497430	-0.211073	 3.172510	 32.454890	 2.602881	 5.153182	-58.035210	 39.660770	 20.661390	 22.998370	-6.512677	 19.315400	 28.226650	-5.584815	 19.243730	-67.570240	 18.992540	 10.728530	 31.088450	-3.712233	 9.464486	 31.779380	-0.573552	 10.554040	-58.862480	-45.237830	-7.562943	 18.185630	 20.680960	-0.546595	 0.179392	 15.657400	-0.371120	 3.445272	 0.000000	 90.000000	 0.000000	 173.708300	 5.573426	 172.300900	-172.933900	-3.811386	-7.781704
